<svg xmlns="http://www.w3.org/2000/svg" viewBox="0 0 120 120">
  <!-- Fond sombre -->
  <rect x="15" y="15" width="90" height="90" fill="#0f172a" />
  <!-- Fond jaune avec bordure sombre -->
  <rect x="5" y="5" width="90" height="90" fill="#facc15" stroke="#0f172a" stroke-width="8" />
  <!-- G vectorisé -->
  <path d="M51 68H45v-4.5h2.5v-10h-6.5v16.5H53v-5c0-4-2.5-6.5-6.5-6.5h-5.5v-3.5h7.5v-3H41v23h12V68z" fill="#0f172a"/>
  <!-- O vectorisé -->
  <path d="M68.5 75.5c-4 0-6.5-2.5-6.5-6.5v-10c0-4 2.5-6.5 6.5-6.5s6.5 2.5 6.5 6.5v10c0 4-2.5 6.5-6.5 6.5zm0-19.5c-2 0-3 1-3 3v10c0 2 1 3 3 3s3-1 3-3v-10c0-2-1-3-3-3z" fill="#0f172a"/>
</svg>